# xmcd
#
# Track frame offsets:
#	150
#	19334
#	39194
#	50423
#	60091
#	70445
#	92861
#	100551
#	111299
#	124172
#	135699
#	152153
#	163918
#	176888
#	190248
#	205459
#	216437
#	227993
#	239270
#	251446
#
# Disc length: 3515 seconds
#
# Revision: 0
# Processed by: cddbd v1.5.2PL0 Copyright (c) Steve Scherf et al.
# Submitted via: EasyCDDAExtractor 15.3.0.1
#
DISCID=230db914
DTITLE=Robbins Marty - El Paso City/Adios Amigo
DYEAR=1900
DGENRE=
TTITLE0=El Paso City
TTITLE1=Ava Maria Morales
TTITLE2=I'm Gonna Miss You When You Go
TTITLE3=Kin To The Wind
TTITLE4=Way Out There
TTITLE5=Ballad Of Bill Thaxton
TTITLE6=Trail Dreamin'
TTITLE7=I Did What I Did For Maria
TTITLE8=She's Just A Drifter
TTITLE9=Among My Souvenirs
TTITLE10=Adios Amigo
TTITLE11=18 Yellow Roses
TTITLE12=Falling Out Of Love
TTITLE13=I've Never Loved Anyone More
TTITLE14=Helen
TTITLE15=I Don't Know Why (I Just Do)
TTITLE16=My Happiness
TTITLE17=My Blue Heaven
TTITLE18=Inspiration For A Song
TTITLE19=After The Storm
EXTD=
EXTT0=
EXTT1=
EXTT2=
EXTT3=
EXTT4=
EXTT5=
EXTT6=
EXTT7=
EXTT8=
EXTT9=
EXTT10=
EXTT11=
EXTT12=
EXTT13=
EXTT14=
EXTT15=
EXTT16=
EXTT17=
EXTT18=
EXTT19=
PLAYORDER=
